# xmcd CD database file
#
# Track frame offsets:
#	150
#	13900
#	28870
#	45327
#	66874
#	81826
#
# Disc length: 1292 seconds
#
# Revision: 0
# Processed by: cddbd v1.5.2PL0 Copyright (c) Steve Scherf et al.
# Submitted via: CDex 1.51
#
DISCID=46050a06
DTITLE=The Blue News Project - The Signs
DYEAR=2007
DGENRE=Blues
TTITLE0=Leavin'
TTITLE1=Love's So Strong
TTITLE2=Come Back Home
TTITLE3=Homewrecker Rehab Blues
TTITLE4=Next Time
TTITLE5=Same Old Story
EXTD=YEAR: 2007
EXTT0=
EXTT1=
EXTT2=
EXTT3=
EXTT4=
EXTT5=
PLAYORDER=
